#!OML:ASF F:\VICON\USERDATA\INSTALL\rory3\rory3.ASF
:FULLY-SPECIFIED
:DEGREES
3076
root 4.55651 17.6123 4.96358 3.15936 -58.3282 -0.948784
lowerback 3.03315 -0.18061 0.286999
upperback 1.5275 -0.254697 3.26978
thorax -0.11963 -0.152332 3.20594
lowerneck -17.4516 -3.09161 -10.4352
upperneck 19.1272 -3.86476 10.3934
head 9.30409 -1.48239 4.8446
rclavicle 4.80065e-014 -3.18055e-015
rhumerus 29.1265 -30.4816 -38.7082
rradius 78.6859
rwrist -3.66204
rhand -40.011 3.6646
rfingers 7.12502
rthumb -12.9784 -25.9117
lclavicle 4.80065e-014 -3.18055e-015
lhumerus 26.8477 39.7043 45.8227
lradius 92.0608
lwrist 29.4437
lhand -19.398 26.6928
lfingers 7.12502
lthumb 6.92096 56.5596
rfemur -0.679553 -4.79651 16.9814
rtibia 29.5053
rfoot -24.9846 -4.37265
rtoes 0.188454
lfemur -17.8987 3.73724 -9.35056
ltibia 19.3792
lfoot 1.63817 26.5281
ltoes 5.06312
3077
root 4.58676 17.6021 4.85174 3.50591 -58.9121 -1.23412
lowerback 3.36425 -0.0789107 0.404542
upperback 1.59725 -0.114381 3.4752
thorax -0.240344 -0.084186 3.34923
lowerneck -17.2317 -2.96044 -10.6485
upperneck 18.5452 -3.60849 10.4512
head 9.03828 -1.37316 4.91875
rclavicle -7.15625e-015 -7.15625e-015
rhumerus 28.8508 -29.1185 -39.1062
rradius 78.4277
rwrist -2.79651
rhand -39.8455 3.53198
rfingers 7.12502
rthumb -12.8189 -26.0544
lclavicle -7.15625e-015 -7.15625e-015
lhumerus 26.0421 38.7578 46.7029
lradius 92.0165
lwrist 28.8613
lhand -19.6244 26.6414
lfingers 7.12502
lthumb 6.70239 56.5153
rfemur -1.30303 -5.00333 17.4711
rtibia 29.5952
rfoot -24.9872 -4.71312
rtoes -1.63777
lfemur -18.1589 3.29268 -8.81542
ltibia 19.4367
lfoot 1.00148 25.7563
ltoes 4.63324
3078
root 4.61447 17.5981 4.75095 3.8222 -59.5055 -1.45273
lowerback 3.51864 0.0229163 0.520245
upperback 1.7407 0.0190222 3.69383
thorax -0.186469 -0.0216007 3.50617
lowerneck -17.5881 -2.8665 -10.8019
upperneck 18.5601 -3.39623 10.453
head 9.08596 -1.27406 4.97554
rclavicle 8.60738e-014 -2.22639e-014
rhumerus 28.6099 -27.763 -39.4256
rradius 78.1471
rwrist -2.02127
rhand -39.5988 3.44102
rfingers 7.12502
rthumb -12.581 -26.1602
lclavicle 8.60738e-014 -2.22639e-014
lhumerus 25.3907 37.91 47.7743
lradius 91.9313
lwrist 28.552
lhand -19.8021 26.5598
lfingers 7.12502
lthumb 6.53084 56.4391
rfemur -1.89669 -5.11234 17.8653
rtibia 29.7034
rfoot -25.1332 -4.801
rtoes -1.76063
lfemur -18.3933 2.80771 -8.38726
ltibia 19.4826
lfoot 0.339085 24.7944
ltoes 3.70232
3079
root 4.6434 17.5908 4.65229 4.28149 -60.0922 -1.83324
lowerback 3.68685 0.105221 0.757183
upperback 1.83511 0.132938 3.85391
thorax -0.189621 0.0331234 3.53449
lowerneck -17.8947 -2.74154 -10.6834
upperneck 18.6349 -3.19797 10.3268
head 9.13958 -1.17788 4.94009
rclavicle 1.27222e-014 -2.22639e-014
rhumerus 28.2125 -26.3514 -39.8819
rradius 77.9099
rwrist -1.21447
rhand -39.4538 3.61967
rfingers 7.12502
rthumb -12.4413 -25.99
lclavicle 1.27222e-014 -2.22639e-014
lhumerus 24.6349 36.962 48.6307
lradius 91.7823
lwrist 28.5379
lhand -19.6041 26.5218
lfingers 7.12502
lthumb 6.72202 56.3951
rfemur -2.46706 -5.18267 18.3307
rtibia 29.7772
rfoot -25.335 -4.60437
rtoes -0.69483
lfemur -18.6136 2.18175 -7.83104
ltibia 19.473
lfoot -0.262394 23.9446
ltoes 3.15944
3080
root 4.67141 17.5884 4.55286 4.81661 -60.6623 -2.28825
lowerback 3.90339 0.133107 0.989804
upperback 1.8823 0.178804 3.98625
thorax -0.264163 0.0547796 3.53891
lowerneck -18.1054 -2.54392 -10.4056
upperneck 18.6679 -2.94381 10.1646
head 9.15204 -1.05066 4.87044
rclavicle 6.75868e-014 3.18055e-015
rhumerus 27.8627 -24.805 -40.6107
rradius 77.5771
rwrist -0.324039
rhand -39.3053 3.66315
rfingers 7.12502
rthumb -12.298 -25.9552
lclavicle 6.75868e-014 3.18055e-015
lhumerus 23.4715 35.9217 48.9521
lradius 91.7566
lwrist 28.8165
lhand -19.4898 26.8074
lfingers 7.12502
lthumb 6.83234 56.6771
rfemur -3.00974 -5.14888 18.8361
rtibia 29.8165
rfoot -25.4728 -4.35918
rtoes 0.473837
lfemur -18.8328 1.19927 -7.13263
ltibia 19.4068
lfoot -0.970767 23.4162
ltoes 2.8712
3081
root 4.6993 17.5952 4.45569 4.97489 -61.2155 -2.3349
lowerback 4.12384 0.0836574 0.970269
upperback 1.96005 0.112706 4.11615
thorax -0.303842 0.0186934 3.68815
lowerneck -18.4473 -2.26417 -10.1741
upperneck 18.7978 -2.56522 10.0386
head 9.2097 -0.862463 4.84233
rclavicle -9.46215e-014 3.97569e-014
rhumerus 27.7214 -23.1009 -41.4791
rradius 77.1718
rwrist 0.519558
rhand -39.1206 3.80668
rfingers 7.12502
rthumb -12.1199 -25.8223
lclavicle -9.46215e-014 3.97569e-014
lhumerus 22.1182 34.9621 49.0778
lradius 91.7901
lwrist 28.9134
lhand -19.6495 27.4447
lfingers 7.12502
lthumb 6.6782 57.3194
rfemur -3.495 -4.88053 19.1082
rtibia 29.8516
rfoot -25.4823 -4.26236
rtoes 0.668384
lfemur -19.0069 -0.108135 -6.61368
ltibia 19.2877
lfoot -1.74391 23.0559
ltoes 1.75974
